Coordinates
version=1
nRows=11
nColumns=63
inDegrees=yes

Units are S.I. units (second, meters, Newtons, ...)
If the header above contains a line with 'inDegrees', this indicates whether rotational values are in degrees (yes) or radians (no).

endheader
time	pelvis_tilt	pelvis_list	pelvis_rotation	pelvis_tx	pelvis_ty	pelvis_tz	hip_flexion_r	hip_adduction_r	hip_rotation_r	knee_angle_r	knee_angle_r_beta	ankle_angle_r	subtalar_angle_r	mtp_angle_r	hip_flexion_l	hip_adduction_l	hip_rotation_l	knee_angle_l	knee_angle_l_beta	ankle_angle_l	subtalar_angle_l	mtp_angle_l	L5_S1_Flex_Ext	L5_S1_Lat_Bending	L5_S1_axial_rotation	L4_L5_Flex_Ext	L4_L5_Lat_Bending	L4_L5_axial_rotation	L3_L4_Flex_Ext	L3_L4_Lat_Bending	L3_L4_axial_rotation	L2_L3_Flex_Ext	L2_L3_Lat_Bending	L2_L3_axial_rotation	L1_L2_Flex_Ext	L1_L2_Lat_Bending	L1_L2_axial_rotation	L1_T12_Flex_Ext	L1_T12_Lat_Bending	L1_T12_axial_rotation	Abs_r3	Abs_r2	Abs_r1	Abs_t1	Abs_t2	neck_flexion	neck_bending	neck_rotation	arm_flex_r	arm_add_r	arm_rot_r	elbow_flex_r	pro_sup_r	wrist_flex_r	wrist_dev_r	arm_flex_l	arm_add_l	arm_rot_l	elbow_flex_l	pro_sup_l	wrist_flex_l	wrist_dev_l
      0.00000000	      1.99898465	     -2.70235466	     93.36225415	      0.13957969	      0.57185368	      0.88377529	     11.65916297	     -2.78416010	    -12.21360421	      9.78603499	      0.17079853	     25.89793860	     17.15828406	      0.00000000	     12.10191960	      2.81565391	      7.56336090	      7.42881336	      0.12965725	     20.22767535	    -13.11490249	      0.00000000	      0.56377698	     -0.05013862	      0.30882609	      1.04699024	     -0.06668436	      0.32812773	      0.92622921	     -0.12190703	      0.32812773	      0.64434072	     -0.12190703	      0.27022283	      0.52352331	     -0.10224267	      0.25092120	      0.32214217	     -0.07766472	      0.23161957	      4.02700262	     -0.56717805	      1.71759809	      0.00000000	      0.00000000	     28.08156552	      7.46008186	      9.40466209	     33.67619381	     -6.82899272	     95.15142561	     42.80734132	     84.56400933	     11.23411027	      4.86866952	     18.84914761	     -7.50708294	     56.62936171	     44.71726218	     86.94014645	     18.14182553	     26.18591047
      0.01666667	      2.02659501	     -2.51950074	     93.91451817	      0.13861546	      0.57212188	      0.88325272	     11.21839519	     -2.82940060	    -12.62677906	      9.56634874	      0.16696428	     26.13712579	     16.96320347	      0.00000000	     11.90993368	      2.93401296	      8.21198205	      7.50696923	      0.13102133	     20.10010826	    -13.57299424	      0.00000000	      0.54559145	     -0.04413165	      0.15113295	      1.01321788	     -0.05869509	      0.16057875	      0.89635219	     -0.10730169	      0.16057875	      0.62355647	     -0.10730169	      0.13224133	      0.50663622	     -0.08999325	      0.12279552	      0.31175095	     -0.06835992	      0.11334971	      3.89710516	     -0.49922601	      0.84055610	      0.00000000	      0.00000000	     28.03883122	      7.68907950	     10.01422629	     34.22732211	     -6.81663150	    100.19670978	     43.08154445	     86.64697006	      4.26304114	     -0.09820215	     18.08417637	     -7.60620186	     54.84251920	     44.95484796	     84.61645735	     20.43557481	     26.55023694
      0.03333333	      2.01346465	     -2.35242451	     94.27321074	      0.13799490	      0.57231872	      0.88281256	     10.88562283	     -2.89480814	    -12.90271144	      9.46384682	      0.16517529	     26.38354948	     16.90913673	      0.00000000	     11.76512289	      3.04703253	      8.62664710	      7.64221944	      0.13338189	     20.05772105	    -13.82432500	      0.00000000	      0.52701519	     -0.03928427	      0.00559654	      0.97871991	     -0.05224808	      0.00594633	      0.86583325	     -0.09551577	      0.00594633	      0.60232566	     -0.09551577	      0.00489698	      0.48938630	     -0.08010848	      0.00454719	      0.30113648	     -0.06085133	      0.00419741	      3.76441678	     -0.44439152	      0.03112630	      0.00000000	      0.00000000	     28.00732788	      7.85331179	     10.74089468	     35.21671220	     -6.24422096	    105.91683337	     42.86612731	     86.87972020	     -1.76831642	     -3.94900747	     17.58536736	     -7.85194988	     54.21453916	     45.58731678	     84.31265407	     21.44728447	     26.86013611
      0.05000000	      1.99107200	     -2.28295644	     94.32689088	      0.13765135	      0.57258715	      0.88198744	     10.74093314	     -2.94910881	    -12.91202299	      9.48749416	      0.16558801	     26.41743353	     16.88459388	      0.00000000	     11.64502578	      3.10846664	      8.61532210	      7.69909189	      0.13437450	     20.00732271	    -13.81567146	      0.00000000	      0.52977497	     -0.03949885	     -0.00407324	      0.98384510	     -0.05253347	     -0.00432782	      0.87036730	     -0.09603750	     -0.00432782	      0.60547982	     -0.09603750	     -0.00356409	      0.49194904	     -0.08054605	     -0.00330951	      0.30271342	     -0.06118372	     -0.00305493	      3.78412966	     -0.44681888	     -0.02265414	      0.00000000	      0.00000000	     28.01857900	      7.86087630	     10.74897940	     34.83921187	     -6.42164980	    106.20951181	     42.94265647	     86.95321228	     -1.80989277	     -4.00130850	     17.30310911	     -7.71646697	     54.43045508	     45.73690499	     84.33933834	     21.55192293	     26.88520016
      0.06666667	      1.85979661	     -2.11142658	     95.15882795	      0.13682893	      0.57275871	      0.88146619	     10.20242432	     -3.14591660	    -13.60161751	      9.15418294	      0.15977063	     26.67566748	     16.75419918	      0.00000000	     11.48365418	      3.38976535	      9.43946201	      7.78556071	      0.13588367	     19.94990739	    -13.76901469	      0.00000000	      0.51595031	     -0.06985658	     -0.14613240	      0.95817132	     -0.09290925	     -0.15526567	      0.84765476	     -0.16984929	     -0.15526567	      0.58967961	     -0.16984929	     -0.12786585	      0.47911146	     -0.14245154	     -0.11873257	      0.29481401	     -0.10820785	     -0.10959930	      3.68538146	     -0.79023163	     -0.81274455	      0.00000000	      0.00000000	     27.95517055	      7.83506321	     10.02186996	     35.65786040	     -5.90129274	    110.40543897	     42.87754498	     87.47038043	     -6.79976896	     -6.23102297	     18.28557036	     -8.09203177	     57.56392707	     45.98069513	     86.19943144	     22.58465447	     25.89705590
      0.08333333	      1.78269231	     -2.03464829	     95.42977953	      0.13618628	      0.57292559	      0.88078412	      9.94290634	     -3.26105281	    -13.75497538	      9.01785503	      0.15739126	     26.77206684	     16.66517326	      0.00000000	     11.31970657	      3.53867932	      9.73248691	      7.72719178	      0.13486494	     19.88786479	    -13.63292642	      0.00000000	      0.51648925	     -0.08065873	     -0.19670097	      0.95917219	     -0.10727611	     -0.20899478	      0.84854019	     -0.19611363	     -0.20899478	      0.59029556	     -0.19611363	     -0.17211335	      0.47961192	     -0.16447927	     -0.15981954	      0.29512196	     -0.12494037	     -0.14752573	      3.68923106	     -0.91242764	     -1.09399180	      0.00000000	      0.00000000	     27.92283425	      7.88782438	      9.76203200	     35.84581943	     -5.91480143	    111.18355893	     43.10601844	     87.72828573	     -6.49948380	     -6.29201780	     18.50694371	     -8.00076542	     58.93361782	     46.14149821	     87.17068099	     22.42414696	     26.23053042
      0.10000000	      1.73643539	     -1.86820160	     95.96212689	      0.13559852	      0.57337729	      0.88034153	      9.56377640	     -3.36694202	    -14.47620315	      8.89768376	      0.15529388	     26.79581645	     16.92187964	      0.00000000	     11.18609108	      3.66985784	     10.16884223	      7.85412799	      0.13708039	     19.84403483	    -13.45178738	      0.00000000	      0.50163628	     -0.09984168	     -0.23205611	      0.93158873	     -0.13278943	     -0.24655962	      0.82413824	     -0.24275505	     -0.24655962	      0.57332010	     -0.24275505	     -0.20304910	      0.46581945	     -0.20359714	     -0.18854559	      0.28663497	     -0.15465475	     -0.17404209	      3.58313776	     -1.12942900	     -1.29062649	      0.00000000	      0.00000000	     27.89583962	      7.69832144	      8.58996604	     35.78097147	     -6.04273423	    111.16959559	     43.15978026	     87.79019759	     -6.27480946	     -6.48133535	     19.55225450	     -8.22918505	     62.46674637	     46.26331631	     87.53081930	     21.37457992	     24.88188291
      0.11666667	      1.71046842	     -1.74907466	     96.25497917	      0.13496349	      0.57370197	      0.87990647	      9.29273116	     -3.41452367	    -14.56344243	      8.77573992	      0.15316556	     26.77956825	     16.73705848	      0.00000000	     11.04415319	      3.76516767	     10.54148993	      7.87769721	      0.13749175	     19.79976490	    -13.42062429	      0.00000000	      0.49152720	     -0.10483030	     -0.25913583	      0.91281516	     -0.13942430	     -0.27533182	      0.80753003	     -0.25488440	     -0.27533182	      0.56176643	     -0.25488440	     -0.22674386	      0.45643215	     -0.21376996	     -0.21054787	      0.28085864	     -0.16238214	     -0.19435188	      3.51092961	     -1.18586137	     -1.44123577	      0.00000000	      0.00000000	     27.85721470	      7.60989761	      8.18402349	     35.72865695	     -6.27311664	    110.68114744	     43.37147040	     87.87218337	     -5.23323314	     -6.66614472	     19.89246680	     -8.27833636	     63.87886679	     46.45266126	     87.82236917	     20.83852554	     24.54856201
      0.13333333	      1.73020325	     -1.64503422	     96.46057231	      0.13434633	      0.57400493	      0.87965155	      9.09473824	     -3.42633131	    -14.73053486	      8.70105846	      0.15186212	     26.72578154	     16.76911135	      0.00000000	     10.92877597	      3.80318932	     10.99896104	      7.88512659	      0.13762142	     19.73807583	    -13.55559578	      0.00000000	      0.48077604	     -0.10084450	     -0.26679465	      0.89284919	     -0.13412319	     -0.28346931	      0.78986696	     -0.24519333	     -0.28346931	      0.54947894	     -0.24519333	     -0.23344532	      0.44644864	     -0.20564211	     -0.21677065	      0.27471543	     -0.15620814	     -0.20009599	      3.43413521	     -1.14077321	     -1.48383180	      0.00000000	      0.00000000	     27.81579873	      7.39673700	      7.86109819	     35.62107780	     -6.62602508	    110.12445364	     43.61303310	     87.89030022	     -4.94941890	     -7.32113220	     20.18394971	     -8.38421070	     65.06206225	     46.66423246	     87.93971902	     20.08145432	     23.73290974
      0.15000000	      1.85348309	     -1.59043153	     96.64770016	      0.13353323	      0.57421190	      0.87939591	      8.95829926	     -3.33704553	    -14.92488331	      8.62219773	      0.15048574	     26.57065843	     16.76998093	      0.00000000	     10.89050092	      3.74683632	     11.15583102	      7.91513954	      0.13814525	     19.82249480	    -13.39432619	      0.00000000	      0.47665332	     -0.07513180	     -0.31271178	      0.88519288	     -0.09992529	     -0.33225626	      0.78309374	     -0.18267545	     -0.33225626	      0.54476708	     -0.18267545	     -0.27362281	      0.44262027	     -0.15320876	     -0.25407832	      0.27235971	     -0.11637915	     -0.23453383	      3.40468698	     -0.84990589	     -1.73920909	      0.00000000	      0.00000000	     27.73757191	      7.18666175	      8.38688851	     35.64893692	     -6.88273094	    110.06859921	     43.90225717	     87.86262688	     -5.14385018	     -7.74822693	     19.95102227	     -8.47381009	     64.72634503	     46.95661280	     88.03028184	     19.63450987	     23.12799351
      0.16666667	      1.80875725	     -1.48776194	     96.97483296	      0.13284115	      0.57444903	      0.87922020	      8.72180609	     -3.43162161	    -15.35151728	      8.51940016	      0.14869158	     26.45766924	     16.95569855	      0.00000000	     10.81354204	      3.84995736	     11.33482143	      7.97435420	      0.13917874	     19.88215177	    -13.15685983	      0.00000000	      0.45874165	     -0.08610441	     -0.36009002	      0.85192913	     -0.11451886	     -0.38259564	      0.75366666	     -0.20935425	     -0.38259564	      0.52429584	     -0.20935425	     -0.31507876	      0.42598750	     -0.17558411	     -0.29257314	      0.26212498	     -0.13337573	     -0.27006751	      3.27674576	     -0.97403027	     -2.00271265	      0.00000000	      0.00000000	     27.64976576	      7.16168282	      7.81979601	     35.54364715	     -7.05601935	    109.97204262	     43.99337333	     87.85738975	     -6.45576905	     -8.88117775	     19.77806163	     -8.70179310	     64.36362338	     47.33932225	     87.90546831	     18.99427033	     22.55058732
